# xmcd
#
# Track frame offsets:
#  150
#  13534
#  29527
#  43854
#  59589
#  74795
#  95136
#  106998
#  121437
#  138112
#  158828
#  173088
#  187841
#
# Disc length: 2613 seconds
#
# Revision: 0
# Processed by: cddbd v1.5.2PL0 Copyright (c) Steve Scherf et al.
# Submitted via: AltoMP3_Maker 3.0
#
DISCID=b70a330d
DTITLE=The Stone Cold Roosters - Out of the Woods
DYEAR=1900
DGENRE=
TTITLE0=Gotta Learn How (to Dance)
TTITLE1=Your Feet Look Good
TTITLE2=A Running Start on Sat. Night
TTITLE3=I Let a Good Love Die
TTITLE4=Always a Way to Forget
TTITLE5=Well Swung
TTITLE6=Happy as a Pig in S**t
TTITLE7=Gettin' Sideways
TTITLE8=Home in San Antone
TTITLE9=Out of the Woods
TTITLE10=Uncle Jim's Rag
TTITLE11=Hole in My Bucket Blues
TTITLE12=instrumental
EXTD=
EXTT0=
EXTT1=
EXTT2=
EXTT3=
EXTT4=
EXTT5=
EXTT6=
EXTT7=
EXTT8=
EXTT9=
EXTT10=
EXTT11=
EXTT12=
PLAYORDER=
